<?xml version="1.0" standalone="no"?>
<!DOCTYPE svg PUBLIC "-//W3C//DTD SVG 20010904//EN"
 "http://www.w3.org/TR/2001/REC-SVG-20010904/DTD/svg10.dtd">
<svg version="1.0" xmlns="http://www.w3.org/2000/svg"
 width="1160.000000pt" height="1160.000000pt" viewBox="0 0 1160.000000 1160.000000"
 preserveAspectRatio="xMidYMid meet">
<metadata>
Created by potrace 1.11, written by Peter Selinger 2001-2013
</metadata>
<g transform="translate(0.000000,1160.000000) scale(0.100000,-0.100000)"
fill="#000000" stroke="none">
<path d="M5613 10506 c-59 -51 -173 -189 -238 -289 -220 -338 -331 -814 -256
-1091 44 -165 159 -350 281 -457 34 -30 84 -89 119 -143 86 -132 242 -274 342
-311 13 -5 31 48 109 320 51 179 91 327 89 329 -2 2 -119 -5 -259 -15 -140
-10 -266 -18 -279 -19 -24 0 -24 0 -18 84 6 86 35 188 68 243 l20 32 122 -44
c67 -24 166 -59 220 -78 68 -25 99 -32 102 -24 3 7 31 99 64 205 32 106 61
195 63 198 3 3 41 13 84 24 44 10 113 31 154 45 103 37 290 134 290 150 0 7
-19 51 -42 97 -32 62 -63 103 -124 164 -139 139 -322 214 -569 232 l-99 7 -86
187 c-57 127 -90 188 -101 188 -8 0 -34 -16 -56 -34z m101 -225 c56 -125 58
-140 18 -141 -33 0 -173 -55 -234 -91 -37 -22 -95 -65 -129 -97 -50 -46 -60
-52 -54 -32 16 53 96 209 146 283 60 91 179 222 189 210 5 -4 33 -64 64 -132z
m385 -221 c207 -42 374 -157 472 -324 22 -38 22 -39 3 -53 -74 -57 -279 -124
-508 -167 -268 -50 -386 -103 -496 -223 -102 -111 -142 -232 -141 -426 l0
-117 -49 57 c-130 153 -200 319 -208 499 -5 134 16 236 77 359 156 316 487
470 850 395z m-70 -766 c-23 -77 -45 -143 -49 -147 -6 -7 -315 95 -328 108
-10 10 62 60 143 99 82 40 256 91 273 80 2 -1 -16 -64 -39 -140z m-83 -546
c-3 -18 -16 -65 -29 -104 l-22 -72 -114 44 c-117 46 -145 48 -157 12 -9 -30 7
-41 134 -89 128 -49 121 -36 86 -154 l-15 -55 -32 17 c-17 10 -65 52 -107 93
-76 76 -145 187 -168 273 -9 32 -8 37 6 38 9 0 89 7 177 13 88 7 180 14 204
15 l43 1 -6 -32z"/>
<path d="M6266 9877 c-33 -33 -33 -71 -1 -102 47 -48 119 -19 119 49 0 43 -17
63 -61 72 -26 5 -37 1 -57 -19z"/>
<path d="M4510 9270 c-709 -219 -1336 -596 -1855 -1115 -647 -647 -1077 -1467
-1239 -2365 -52 -288 -61 -399 -61 -790 0 -292 4 -394 18 -510 66 -523 204
-996 423 -1441 106 -215 153 -298 289 -504 400 -607 926 -1094 1568 -1451 113
-63 160 -84 182 -82 26 3 30 7 30 33 0 25 -7 33 -45 53 -438 233 -778 481
-1104 808 -353 352 -619 725 -841 1179 -224 459 -355 901 -421 1425 -34 278
-29 760 12 1065 196 1457 1103 2712 2428 3361 221 109 533 227 751 286 48 13
50 15 50 48 0 32 -3 35 -30 37 -16 1 -86 -15 -155 -37z"/>
<path d="M6893 9299 c-7 -7 -13 -21 -13 -30 0 -26 17 -34 148 -73 1498 -447
2673 -1701 3016 -3221 115 -506 139 -1056 70 -1565 -119 -877 -517 -1717
-1131 -2385 -323 -352 -783 -704 -1182 -904 -44 -22 -83 -45 -86 -51 -4 -6 -4
-22 -1 -36 10 -38 47 -31 165 33 707 377 1313 955 1728 1648 814 1360 839
3073 64 4460 -218 389 -536 795 -858 1091 -487 448 -1019 763 -1640 970 -215
71 -262 82 -280 63z"/>
<path d="M4885 7210 c-234 -32 -414 -192 -471 -420 -23 -89 -15 -251 15 -340
30 -87 100 -190 164 -241 112 -89 229 -129 382 -129 169 0 292 46 391 145 91
90 141 202 146 330 l3 60 -260 0 -260 0 -3 -52 -3 -53 183 0 c101 0 189 -4
196 -9 11 -6 9 -18 -6 -59 -52 -135 -159 -217 -318 -243 -272 -44 -514 166
-514 446 0 301 268 514 553 440 82 -21 129 -48 185 -105 27 -27 57 -50 66 -50
28 0 76 42 76 67 0 34 -94 123 -170 159 -103 50 -236 70 -355 54z"/>
<path d="M5715 7188 c-3 -7 -4 -256 -3 -553 l3 -540 348 -3 347 -2 0 55 0 55
-282 2 -283 3 0 155 0 155 243 3 242 2 0 55 0 55 -242 2 -243 3 0 225 0 225
273 3 272 2 0 55 0 55 -335 0 c-259 0 -337 -3 -340 -12z"/>
<path d="M6554 7186 c-3 -8 -4 -31 -2 -52 l3 -39 165 -5 165 -5 5 -495 5 -495
60 0 60 0 5 495 5 495 165 5 165 5 0 50 0 50 -398 3 c-334 2 -398 0 -403 -12z"/>
<path d="M2805 6727 c-27 -63 -81 -113 -130 -123 -34 -6 -35 -8 -35 -50 0 -43
1 -44 33 -44 38 0 113 32 144 62 l22 20 33 -26 c51 -38 101 -56 161 -56 68 0
111 14 160 52 l37 29 35 -27 c48 -36 100 -53 165 -53 66 0 114 16 163 53 l36
28 38 -31 c41 -33 120 -58 147 -48 13 5 16 16 14 43 -3 33 -7 39 -41 50 -62
22 -92 50 -121 114 -15 33 -33 60 -40 60 -8 0 -24 -25 -36 -55 -66 -163 -254
-163 -320 0 -12 30 -28 55 -35 55 -7 0 -26 -29 -43 -63 -37 -81 -82 -112 -158
-111 -70 0 -117 36 -153 115 -14 32 -32 58 -39 59 -7 0 -24 -24 -37 -53z"/>
<path d="M7940 6725 c-26 -63 -63 -99 -120 -116 -39 -12 -40 -14 -40 -56 0
-40 2 -43 28 -43 39 1 97 24 137 54 l35 27 37 -29 c93 -73 222 -71 321 4 l33
26 22 -20 c86 -81 258 -81 344 0 l22 20 35 -27 c41 -31 99 -54 139 -55 25 0
27 3 27 43 0 42 -1 44 -40 56 -57 17 -95 54 -121 116 -12 30 -29 55 -36 55 -7
0 -24 -24 -37 -53 -40 -92 -111 -138 -191 -123 -51 10 -109 66 -131 126 -11
32 -24 50 -34 50 -10 0 -23 -18 -34 -50 -24 -66 -80 -116 -141 -125 -37 -6
-54 -3 -93 17 -40 20 -52 34 -80 91 -19 37 -40 67 -47 67 -7 0 -23 -25 -35
-55z"/>
<path d="M4140 5701 c-229 -32 -417 -199 -471 -421 -19 -78 -17 -232 5 -304
30 -101 75 -177 145 -247 108 -108 239 -159 406 -159 269 0 476 153 551 406
21 72 24 226 5 304 -46 193 -204 355 -392 403 -72 19 -182 27 -249 18z m193
-126 c79 -21 131 -49 189 -103 93 -87 138 -197 138 -337 0 -233 -144 -407
-370 -447 -199 -35 -407 89 -475 282 -124 351 171 695 518 605z"/>
<path d="M5439 5700 c-234 -36 -408 -194 -465 -420 -23 -89 -15 -251 15 -340
79 -229 285 -370 541 -370 163 0 304 56 409 161 215 215 216 594 1 809 -125
126 -320 188 -501 160z m198 -124 c163 -43 281 -165 317 -326 39 -172 -5 -330
-123 -444 -137 -130 -326 -159 -499 -75 -260 126 -323 494 -124 719 101 114
278 166 429 126z"/>
<path d="M2662 5138 l3 -553 58 -3 57 -3 0 200 c0 110 3 206 6 215 5 14 40 16
289 16 249 0 284 -2 289 -16 3 -9 6 -105 6 -215 l0 -200 58 3 57 3 3 553 2
552 -60 0 -60 0 0 -264 c0 -145 -3 -271 -6 -280 -5 -14 -40 -16 -289 -16 -249
0 -284 2 -289 16 -3 9 -6 135 -6 280 l0 264 -60 0 -60 0 2 -552z"/>
<path d="M6270 5135 l0 -555 60 0 60 0 0 159 0 159 63 81 c34 44 65 80 69 81
4 0 209 -282 454 -627 553 -777 561 -788 629 -852 176 -166 440 -159 606 16
176 187 145 498 -65 642 -53 36 -152 71 -204 71 -39 0 -39 0 -51 -52 -10 -47
-39 -110 -81 -174 -12 -19 -10 -25 15 -58 32 -42 62 -46 93 -13 22 23 72 123
72 145 0 18 64 -11 116 -53 128 -105 131 -306 8 -428 -64 -64 -107 -81 -199
-82 -143 0 -199 43 -401 315 -172 231 -904 1254 -904 1264 0 1 86 110 190 242
105 131 190 247 190 256 0 15 -9 18 -62 17 l-63 0 -229 -295 c-126 -162 -234
-293 -238 -292 -5 2 -9 135 -8 296 l1 292 -61 0 -60 0 0 -555z"/>
<path d="M7245 5678 c-3 -7 -4 -256 -3 -553 l3 -540 350 0 350 0 0 50 0 50
-285 5 -285 5 0 155 0 155 243 3 242 2 0 55 0 55 -242 2 -243 3 0 225 0 225
273 3 272 2 0 55 0 55 -335 0 c-259 0 -337 -3 -340 -12z"/>
<path d="M8152 5138 l3 -553 200 0 c159 0 213 4 264 18 164 44 282 137 344
269 44 91 57 155 57 266 -1 225 -99 397 -280 485 -110 54 -184 67 -403 67
l-187 0 2 -552z m379 428 c202 -36 323 -158 351 -355 30 -201 -54 -380 -213
-460 -82 -41 -146 -52 -280 -49 l-114 3 -3 424 c-1 304 1 428 9 437 15 18 148
18 250 0z"/>
<path d="M5057 3294 c-4 -4 -7 -237 -7 -517 l0 -510 -79 76 c-71 67 -85 76
-137 87 -74 16 -213 7 -313 -19 -86 -23 -106 -38 -97 -74 8 -34 31 -40 90 -22
27 8 55 15 63 15 10 0 13 -54 13 -286 0 -243 -2 -285 -14 -281 -8 3 -128 7
-267 8 -251 2 -252 2 -271 -21 -10 -12 -18 -34 -18 -49 0 -34 392 -810 421
-833 20 -17 100 -18 1368 -18 1075 0 1351 3 1365 13 21 15 186 446 186 486 0
43 -40 71 -102 71 l-50 0 45 50 c61 67 81 129 75 229 -5 87 -28 141 -85 197
-42 43 -119 80 -184 89 -48 7 -160 -15 -186 -36 -18 -15 -31 -3 -104 94 -170
226 -270 568 -282 969 l-2 77 -675 -387 -675 -388 -5 491 -5 490 -30 3 c-17 2
-34 0 -38 -4z m1353 -483 c36 -370 147 -667 328 -880 42 -49 44 -55 32 -75
-43 -67 -54 -103 -54 -176 0 -89 30 -165 88 -224 l38 -37 -384 3 -383 3 -70
35 c-53 27 -99 63 -192 154 l-123 119 0 183 0 184 -119 0 c-178 0 -351 36
-418 88 -22 17 -12 23 609 379 348 199 633 361 634 360 1 -1 7 -53 14 -116z
m-1591 -471 c21 -6 70 -45 135 -107 159 -155 284 -207 529 -220 l117 -6 0
-135 0 -134 -132 6 c-73 3 -280 9 -460 12 l-328 7 0 293 0 294 53 0 c28 0 67
-4 86 -10z m2256 -451 c53 -13 119 -67 145 -120 24 -46 26 -125 5 -176 -16
-37 -42 -73 -55 -73 -3 0 -37 63 -75 140 -61 126 -74 144 -118 176 -27 19 -46
38 -43 41 5 6 61 20 84 22 7 1 33 -4 57 -10z m-147 -132 c28 -22 52 -40 52
-42 0 -1 -6 -18 -14 -36 -7 -19 -26 -67 -41 -107 l-27 -74 -34 33 c-42 41 -68
116 -60 173 8 53 42 110 59 99 7 -4 36 -25 65 -46z m-1920 -92 l633 -14 103
-103 c111 -111 182 -160 285 -195 65 -22 72 -22 649 -23 320 0 582 -3 582 -8
0 -4 -31 -90 -70 -191 -38 -102 -70 -186 -70 -188 0 -1 -591 -3 -1312 -3
l-1313 0 -185 365 c-102 201 -186 369 -188 373 -1 4 55 6 125 4 71 -1 413 -9
761 -17z m2050 -140 c12 -25 22 -50 22 -55 0 -6 -22 -10 -49 -10 l-49 0 21 55
c11 30 23 55 26 55 4 0 17 -20 29 -45z"/>
<path d="M4730 1986 l0 -164 193 -7 c105 -4 205 -5 220 -4 l28 4 -82 168 -83
167 -138 0 -138 0 0 -164z m255 -2 c19 -42 35 -78 35 -80 0 -6 -70 -5 -139 2
l-61 7 0 73 0 74 65 0 66 0 34 -76z"/>
<path d="M5249 1981 c-39 -40 -41 -105 -3 -150 73 -88 218 -10 185 100 -16 52
-53 79 -108 79 -36 0 -50 -6 -74 -29z m89 -78 c-4 -22 -22 -20 -26 1 -2 10 3
16 13 16 10 0 15 -7 13 -17z"/>
</g>
</svg>
